<svg id="Layer_1" data-name="Layer 1" xmlns="http://www.w3.org/2000/svg" viewBox="0 0 60 73.12"><title>2017-10-27_final</title><path d="M56,13.74H38v43H63.55v-43H56ZM46.56,48.15V22.34h8.6V48.15h-8.6Z" transform="translate(-20.76 -13.74)" fill="#222438"/><polygon points="0 8.6 0 43.01 8.6 43.01 8.6 0 0 8.6" fill="#222438"/><polygon points="51.4 8.6 51.4 43.01 60 43.01 60 0 51.4 8.6" fill="#222438"/><path d="M20.76,65.35V86.86h60V65.35h-60Z" transform="translate(-20.76 -13.74)" fill="#a7db23"/><path d="M29.53,80.29V71.75H30.9l2.77,3.84,2.74-3.84h1.34v8.54H36.41V73.8L34,77H33.25L30.87,73.8v6.49H29.53Z" transform="translate(-20.76 -13.74)" fill="#222438"/><path d="M40.74,80.29V71.75h6.07V73H42.08v2.13h3.85v1.23H42.08v2.71H47v1.23H40.74Z" transform="translate(-20.76 -13.74)" fill="#222438"/><path d="M49.42,80.29V71.75h3a4.76,4.76,0,0,1,3.35,1.2,4.29,4.29,0,0,1,0,6.16,4.76,4.76,0,0,1-3.35,1.18h-3Zm1.34-1.23h1.55a3.57,3.57,0,0,0,2.5-.82,3.18,3.18,0,0,0,0-4.44,3.57,3.57,0,0,0-2.5-.82H50.76v6.07Z" transform="translate(-20.76 -13.74)" fill="#222438"/><path d="M59.83,80.29V71.75h1.34v8.54H59.83Z" transform="translate(-20.76 -13.74)" fill="#222438"/><path d="M63.44,80.29l3.73-8.59h1.29l3.73,8.59H70.76l-0.93-2.12h-4l-0.91,2.12H63.44Zm2.8-3.3h3.12L67.81,73.4Z" transform="translate(-20.76 -13.74)" fill="#222438"/></svg>